<?xml version="1.0" encoding="UTF-8" standalone="no"?>
<svg
   class="svg-icon"
   style="width: 1em; height: 1em;vertical-align: middle;fill: currentColor;overflow: hidden;"
   viewBox="0 0 1024 1024"
   version="1.1"
   id="svg1"
   sodipodi:docname="226-roles-groups-white.svg"
   inkscape:export-filename="226-roles-groups-white.svg"
   inkscape:export-xdpi="96"
   inkscape:export-ydpi="96"
   inkscape:version="1.3 (1:1.3+202307231459+0e150ed6c4)"
   xmlns:inkscape="http://www.inkscape.org/namespaces/inkscape"
   xmlns:sodipodi="http://sodipodi.sourceforge.net/DTD/sodipodi-0.dtd"
   xmlns="http://www.w3.org/2000/svg"
   xmlns:svg="http://www.w3.org/2000/svg">
  <defs
     id="defs1" />
  <sodipodi:namedview
     id="namedview1"
     pagecolor="#ffffff"
     bordercolor="#000000"
     borderopacity="0.25"
     inkscape:showpageshadow="2"
     inkscape:pageopacity="0.0"
     inkscape:pagecheckerboard="true"
     inkscape:deskcolor="#d1d1d1"
     inkscape:zoom="0.48730469"
     inkscape:cx="512"
     inkscape:cy="512"
     inkscape:window-width="1280"
     inkscape:window-height="695"
     inkscape:window-x="0"
     inkscape:window-y="25"
     inkscape:window-maximized="1"
     inkscape:current-layer="svg1" />
  <path
     d="M663.2 447.2c84 10.4 153.6-60.8 142.4-144-7.2-57.6-52.8-103.2-109.6-110.4-84-10.4-154.4 60-143.2 144 7.2 57.6 53.6 103.2 110.4 110.4z m-326.4 0c84 10.4 153.6-60.8 142.4-144-7.2-57.6-53.6-103.2-110.4-110.4-84-10.4-154.4 60-143.2 144 8 57.6 53.6 103.2 111.2 110.4z m11.2 64.8C253.6 512 64 560.8 64 657.6V816c0 8.8 7.2 16 16 16h536c8.8 0 16-7.2 16-16V657.6C632 560.8 442.4 512 348 512z m322.4 0c-12 0-25.6 0.8-40 2.4 48 34.4 81.6 81.6 81.6 143.2V816c0 8.8 7.2 16 16 16h216c8.8 0 16-7.2 16-16V657.6C960 560.8 767.2 512 670.4 512z"
     id="path1"
     style="fill:#ffffff" />
</svg>
