<?xml version="1.0" encoding="UTF-8" standalone="no"?>
<svg
   class="svg-icon"
   style="width: 1em; height: 1em;vertical-align: middle;fill: currentColor;overflow: hidden;"
   viewBox="0 0 1024 1024"
   version="1.1"
   id="svg1"
   sodipodi:docname="home-360-white.svg"
   inkscape:export-filename="home-360-white.svg"
   inkscape:export-xdpi="96"
   inkscape:export-ydpi="96"
   inkscape:version="1.3 (1:1.3+202307231459+0e150ed6c4)"
   xmlns:inkscape="http://www.inkscape.org/namespaces/inkscape"
   xmlns:sodipodi="http://sodipodi.sourceforge.net/DTD/sodipodi-0.dtd"
   xmlns="http://www.w3.org/2000/svg"
   xmlns:svg="http://www.w3.org/2000/svg">
  <defs
     id="defs1" />
  <sodipodi:namedview
     id="namedview1"
     pagecolor="#ffffff"
     bordercolor="#000000"
     borderopacity="0.25"
     inkscape:showpageshadow="2"
     inkscape:pageopacity="0.0"
     inkscape:pagecheckerboard="true"
     inkscape:deskcolor="#d1d1d1"
     inkscape:export-bgcolor="#ffffff00"
     inkscape:zoom="0.48730469"
     inkscape:cx="512"
     inkscape:cy="512"
     inkscape:window-width="1280"
     inkscape:window-height="695"
     inkscape:window-x="0"
     inkscape:window-y="25"
     inkscape:window-maximized="1"
     inkscape:current-layer="svg1" />
  <path
     d="M947.712 508.48 555.008 140.224C547.968 132.672 538.176 128.384 527.872 128.384S507.776 132.672 500.672 140.224L73.92 510.912C63.872 521.728 61.184 537.472 67.072 550.976s19.264 22.336 33.984 22.336l92.288 0 0 280.32C193.344 888.768 220.864 896 256 896l63.36 0 21.184 0 7.04 0L339.456 896c23.424 0 42.368-19.008 42.368-42.368l0-171.264C381.824 659.008 400.832 640 424.32 640l173.888 0c23.488 0 42.432 19.008 42.432 42.368l0 171.264c0 23.36 19.008 42.368 42.432 42.368l84.224 0C802.496 896 832 888.768 832 853.632l0-280.32 90.688 0c0.128 0 0.128 0 0.256 0 20.48 0 37.056-16.64 37.056-37.12C960 525.248 955.2 515.392 947.712 508.48z"
     id="path1"
     style="fill:#ffffff" />
</svg>
