<?xml version="1.0" encoding="UTF-8" standalone="no"?>
<svg
   class="svg-icon"
   style="width: 1.0009765625em;height: 1em;vertical-align: middle;fill: currentColor;overflow: hidden;"
   viewBox="0 0 1025 1024"
   version="1.1"
   id="svg3"
   sodipodi:docname="support-43-white.svg"
   inkscape:version="1.3 (1:1.3+202307231459+0e150ed6c4)"
   xmlns:inkscape="http://www.inkscape.org/namespaces/inkscape"
   xmlns:sodipodi="http://sodipodi.sourceforge.net/DTD/sodipodi-0.dtd"
   xmlns="http://www.w3.org/2000/svg"
   xmlns:svg="http://www.w3.org/2000/svg">
  <defs
     id="defs3" />
  <sodipodi:namedview
     id="namedview3"
     pagecolor="#ffffff"
     bordercolor="#000000"
     borderopacity="0.25"
     inkscape:showpageshadow="2"
     inkscape:pageopacity="0.0"
     inkscape:pagecheckerboard="true"
     inkscape:deskcolor="#d1d1d1"
     inkscape:zoom="0.48730469"
     inkscape:cx="512"
     inkscape:cy="512"
     inkscape:window-width="1280"
     inkscape:window-height="695"
     inkscape:window-x="0"
     inkscape:window-y="25"
     inkscape:window-maximized="1"
     inkscape:current-layer="svg3" />
  <path
     d="M171.2 345.6H512c25.6 0 43.2-17.6 43.2-43.2s-17.6-43.2-43.2-43.2H171.2c-25.6 0-43.2 17.6-43.2 43.2s17.6 43.2 43.2 43.2zM171.2 473.6h171.2c25.6 0 43.2-17.6 43.2-43.2s-17.6-43.2-43.2-43.2H171.2c-25.6 0-43.2 17.6-43.2 43.2s17.6 43.2 43.2 43.2zM171.2 601.6h256c25.6 0 43.2-17.6 43.2-43.2s-17.6-43.2-43.2-43.2h-256c-25.6 0-43.2 17.6-43.2 43.2s17.6 43.2 43.2 43.2zM696 371.2c20.8 12.8 46.4 4.8 59.2-17.6 0-8 4.8-8 12.8-8s12.8 8 12.8 12.8c0 8-4.8 12.8-8 12.8-25.6 17.6-46.4 51.2-46.4 81.6v20.8c0 25.6 17.6 43.2 43.2 43.2s43.2-17.6 43.2-43.2v-20.8s0-4.8 4.8-4.8c38.4-17.6 59.2-59.2 56-102.4-4.8-46.4-43.2-81.6-89.6-89.6-43.2-4.8-81.6 17.6-102.4 51.2-16 25.6-8 51.2 14.4 64z"
     id="path1"
     style="fill:#ffffff" />
  <path
     d="M768 601.6m-43.2 0a43.2 43.2 0 1 0 86.4 0 43.2 43.2 0 1 0-86.4 0Z"
     id="path2"
     style="fill:#ffffff" />
  <path
     d="M942.4 132.8H81.6c-43.2 0-81.6 38.4-81.6 80v593.6c0 30.4 17.6 59.2 43.2 72 12.8 8 30.4 12.8 43.2 12.8s30.4-4.8 43.2-12.8l187.2-107.2H944c46.4 0 81.6-38.4 81.6-81.6V212.8c-1.6-41.6-40-80-83.2-80z m-3.2 553.6h-624c-17.6 0-30.4 4.8-43.2 12.8L84.8 806.4V217.6h852.8v468.8z"
     id="path3"
     style="fill:#ffffff" />
</svg>
